<svg version="1.0" xmlns="http://www.w3.org/2000/svg" width="400" height="400" viewBox="0 0 300 300"><path d="M127.5 1.1c-24.1 3.7-48.8 14.2-68.4 29-10.5 7.8-26.4 24.6-33.7 35.4-11.8 17.3-19.2 35-23.3 55.2-2.7 12.8-2.9 43.2-.6 56.7 8 46.1 40 87.8 83 108.6 21.9 10.6 38.1 14 65.7 14 21 0 31.6-1.6 48-7 6.9-2.3 21.9-9 23.6-10.5.2-.2-1.9-3.2-4.6-6.7-21.8-27.9-80-110.6-101.7-144.5-4.5-7.1-4.5-7.1-4.5 40.5 0 33.5-.3 45.1-1.2 46-1.8 1.8-12.3 1.5-14.2-.4-1.4-1.4-1.6-8.2-1.6-60.3 0-46 .3-59.1 1.3-59.9 2.1-1.8 6.5-2.5 11.1-1.8l4.4.7 29 43.7c34.3 51.8 82.4 124.5 87.1 131.9 1.9 2.9 3.8 5.3 4.2 5.3 1.9 0 17.3-12.8 26.1-21.7 20.5-20.8 33.7-45 40-73.3 2-9.2 2.3-13.2 2.3-31.5 0-16.5-.4-22.8-1.8-29.5C284.9 61.2 239.9 15.8 180 2.5c-8.8-2-43-2.9-52.5-1.4zM202 93c1.9 1.9 2 3.3 2 53.7 0 30.2-.4 51.3-.9 50.8-.5-.6-4.3-6.3-8.5-12.9l-7.7-11.8.1-39.7c0-44.8-.5-42.1 8.2-42.1 3.5 0 5.4.6 6.8 2z"/></svg>