<?xml version="1.0" standalone="no"?>
<!DOCTYPE svg PUBLIC "-//W3C//DTD SVG 20010904//EN"
 "http://www.w3.org/TR/2001/REC-SVG-20010904/DTD/svg10.dtd">
<svg version="1.0" xmlns="http://www.w3.org/2000/svg"
 width="300.000000pt" height="300.000000pt" viewBox="0 0 300.000000 300.000000"
 preserveAspectRatio="xMidYMid meet">
<metadata>
Created by potrace 1.16, written by Peter Selinger 2001-2019
</metadata>
<g transform="translate(0.000000,300.000000) scale(0.100000,-0.100000)"
fill="#000000" stroke="none">
<path d="M1275 2989 c-241 -37 -488 -142 -684 -290 -105 -78 -264 -246 -337
-354 -118 -173 -192 -350 -233 -552 -27 -128 -29 -432 -6 -567 80 -461 400
-878 830 -1086 219 -106 381 -140 657 -140 210 0 316 16 480 70 69 23 219 90
236 105 2 2 -19 32 -46 67 -218 279 -800 1106 -1017 1445 -45 71 -45 71 -45
-405 0 -335 -3 -451 -12 -460 -18 -18 -123 -15 -142 4 -14 14 -16 82 -16 603
0 460 3 591 13 599 21 18 65 25 111 18 l44 -7 290 -437 c343 -518 824 -1245
871 -1319 19 -29 38 -53 42 -53 19 0 173 128 261 217 205 208 337 450 400 733
20 92 23 132 23 315 0 165 -4 228 -18 295 -128 598 -578 1052 -1177 1185 -88
20 -430 29 -525 14z m745 -919 c19 -19 20 -33 20 -537 0 -302 -4 -513 -9 -508
-5 6 -43 63 -85 129 l-77 118 1 397 c0 448 -5 421 82 421 35 0 54 -6 68 -20z"/>
</g>
</svg>
