<?xml version="1.0" standalone="no"?>
<!DOCTYPE svg PUBLIC "-//W3C//DTD SVG 20010904//EN"
 "http://www.w3.org/TR/2001/REC-SVG-20010904/DTD/svg10.dtd">
<svg version="1.0" xmlns="http://www.w3.org/2000/svg"
 width="200.000000pt" height="200.000000pt" viewBox="0 0 200.000000 200.000000"
 preserveAspectRatio="xMidYMid meet">
<metadata>
Created by potrace 1.16, written by Peter Selinger 2001-2019
</metadata>
<g transform="translate(0.000000,200.000000) scale(0.100000,-0.100000)"
fill="#000000" stroke="none">
<path d="M1650 1971 c0 -10 -7 -21 -15 -24 -10 -5 -14 -21 -13 -62 1 -31 -3
-60 -8 -63 -14 -11 -15 -29 -3 -77 8 -30 17 -45 28 -45 13 0 13 -2 2 -9 -7 -5
-9 -11 -4 -14 12 -7 36 40 28 53 -5 9 17 181 31 234 5 23 3 26 -20 26 -19 0
-26 -5 -26 -19z"/>
<path d="M1889 1933 c-16 -79 -68 -284 -76 -303 -3 -8 -7 -30 -9 -48 -4 -48
-73 -331 -90 -369 -8 -17 -14 -37 -14 -45 -1 -39 -63 -197 -110 -278 -12 -19
-33 -60 -48 -92 -18 -37 -40 -64 -65 -81 -28 -18 -33 -26 -22 -31 12 -4 13
-10 3 -31 -6 -14 -15 -25 -20 -25 -4 0 -8 -4 -8 -9 0 -11 -51 -68 -153 -173
-43 -44 -76 -82 -73 -85 13 -13 60 -3 116 25 67 35 71 38 140 105 41 40 50 44
50 27 0 -11 4 -20 9 -20 16 0 24 21 13 32 -10 10 6 58 21 58 4 0 7 7 7 15 0 8
5 15 10 15 6 0 14 8 17 18 4 9 12 23 19 30 7 7 16 34 20 60 8 55 20 82 45 100
10 7 24 31 30 52 7 22 16 40 21 40 5 0 8 34 7 75 -1 41 1 78 4 82 4 3 7 15 7
25 0 10 4 18 8 18 5 0 19 50 32 110 13 61 26 110 30 110 4 0 15 41 26 90 10
50 21 90 25 90 4 0 10 18 14 40 7 39 7 40 50 40 79 0 75 -10 75 201 l0 189
-49 0 -50 0 -12 -57z"/>
<path d="M1735 1632 c-5 -4 -10 -13 -11 -19 -1 -7 -2 -22 -2 -34 -1 -12 -6
-17 -13 -13 -7 4 -10 -6 -9 -32 2 -22 2 -52 1 -69 -2 -26 -3 -27 -11 -10 -8
18 -9 18 -10 -5 -2 -53 -13 -106 -27 -137 -8 -17 -13 -40 -11 -50 1 -10 -3
-31 -9 -48 -6 -16 -14 -52 -18 -78 -5 -38 -15 -57 -45 -87 -21 -21 -43 -54
-50 -74 -6 -20 -16 -38 -21 -41 -5 -4 -9 -24 -9 -45 0 -35 -3 -40 -35 -51 -19
-7 -35 -17 -35 -21 0 -4 -9 -8 -19 -8 -16 0 -19 7 -19 43 1 23 -2 54 -6 69 -5
21 -1 33 14 48 11 11 20 27 20 35 0 8 4 15 9 15 5 0 13 10 17 23 4 12 10 24
15 27 10 7 26 108 21 132 -2 13 -41 -20 -141 -120 -76 -75 -176 -171 -223
-212 -47 -41 -90 -85 -96 -97 -9 -18 -7 -23 18 -33 58 -24 138 17 256 132 71
68 81 73 79 33 -4 -73 -26 -103 -168 -230 -43 -38 -97 -94 -119 -124 -68 -87
-244 -257 -390 -377 -26 -22 -78 -65 -117 -96 -79 -66 -90 -78 -64 -78 10 0
54 32 98 72 44 39 111 98 149 132 65 57 218 200 292 274 18 17 38 32 45 32 14
0 70 44 134 106 94 92 180 162 243 199 17 11 32 24 32 29 0 12 62 149 71 156
27 22 61 116 85 232 14 73 30 137 35 143 5 5 9 18 9 30 0 11 11 65 25 120 26
101 28 120 10 107z"/>
<path d="M1041 1331 c0 -7 -61 -72 -134 -145 -163 -161 -267 -252 -324 -281
l-27 -14 48 -22 c46 -20 50 -20 90 -5 60 23 122 64 190 127 l59 54 -5 -42 c-3
-23 -19 -59 -34 -80 l-29 -38 41 35 c42 35 64 69 64 96 0 8 -4 13 -9 10 -17
-11 -19 33 -2 53 9 11 24 29 35 42 24 29 46 82 46 114 0 14 5 25 10 25 6 0 10
11 10 25 0 14 -4 25 -9 25 -5 0 -12 8 -14 18 -3 9 -5 11 -6 3z"/>
<path d="M1315 1236 c-22 -11 -42 -24 -45 -27 -3 -4 -25 -16 -50 -29 -24 -12
-52 -33 -63 -46 -10 -13 -23 -24 -28 -24 -5 0 -17 -7 -26 -16 -68 -60 -98 -84
-105 -84 -4 0 -8 -6 -8 -13 0 -7 -14 -32 -31 -55 -17 -23 -27 -42 -22 -42 4 0
35 26 68 57 52 48 226 193 319 265 17 13 50 26 75 29 l46 6 -45 0 c-28 1 -60
-7 -85 -21z"/>
</g>
</svg>
